# xmcd
#
# Track frame offsets:
#	182
#	18682
#	41187
#	63625
#	80385
#	102347
#	121080
#	141645
#	169392
#	191917
#	214312
#
# Disc length: 3259 seconds
#
# Revision: 1
# Processed by: cddbd v1.5PL3 Copyright (c) Steve Scherf et al.
# Submitted via: EasyCDDAExtractor 6.0.0.1
#
DISCID=ae0cb90b
DTITLE=Willie K - Out of the Blue
DYEAR=1900
DGENRE=country
TTITLE0=Kaulana Na Pua
TTITLE1=One More Time
TTITLE2=Los Hawaiianos
TTITLE3=Nui Papa
TTITLE4=Hawaiian Pride
TTITLE5=You Let me Walk Right into Your Life
TTITLE6=Que Sabroso
TTITLE7=Bottle of Wine
TTITLE8=Painted Crystals
TTITLE9=Nobody Else
TTITLE10=Hey Joe
EXTD=
EXTT0=
EXTT1=
EXTT2=
EXTT3=
EXTT4=
EXTT5=
EXTT6=
EXTT7=
EXTT8=
EXTT9=
EXTT10=
PLAYORDER=
